<svg id="Layer_1" data-name="Layer 1" xmlns="http://www.w3.org/2000/svg" viewBox="0 0 576 783.57"><defs><style>.cls-1{fill:#fff2a9;}.cls-2{fill:#efe2d2;}.cls-3{fill:#fde4d8;}.cls-4{fill:#fcf2d3;}.cls-5{fill:#fdef8d;}.cls-6{fill:#cfe8e5;}.cls-7{fill:#a2d6e8;}.cls-8{fill:#0090b9;}.cls-9{fill:#2493cd;}.cls-10{fill:#5883ba;}.cls-11{fill:#c1d2e5;}.cls-12{fill:#bec4d9;}.cls-13{fill:#cdc1d9;}.cls-14{fill:#dea1c2;}.cls-15{fill:#f9c7b7;}.cls-16{fill:#fdd9a4;}.cls-17{fill:#ffec8a;}.cls-18{fill:#d9cd9a;}.cls-19{fill:#f1eab8;}.cls-20{fill:#90b16c;}.cls-21{fill:#cde0c6;}.cls-22{fill:#b6dcd7;}.cls-23{fill:#74b3bf;}.cls-24{fill:#aad5e2;}.cls-25{fill:#6eb2cb;}.cls-26{fill:#ccd8e4;}.cls-27{fill:#bdc8de;}.cls-28{fill:#e3d1df;}.cls-29{fill:#cfc0d0;}.cls-30{fill:#685e90;}.cls-31{fill:#f6d1d9;}.cls-32{fill:#fad4c1;}.cls-33{fill:#b66d5c;}.cls-34{fill:#f7e6cc;}.cls-35{fill:#268160;}.cls-36{isolation:isolate;font-size:12px;font-family:ArialMT, Arial;}.cls-37{letter-spacing:-0.09em;}.cls-38{letter-spacing:-0.04em;}.cls-39{letter-spacing:-0.06em;}.cls-40{letter-spacing:-0.02em;}.cls-41{letter-spacing:-0.07em;}.cls-42{letter-spacing:0.04em;}.cls-43{letter-spacing:-0.11em;}</style></defs><rect class="cls-1" x="356.9" y="24.67" width="81.8" height="56.4"/><rect class="cls-2" x="34.5" y="24.07" width="80.3" height="57.5"/><rect class="cls-3" x="141.7" y="24.67" width="80.3" height="57"/><rect class="cls-4" x="248.7" y="24.57" width="82.1" height="56.5"/><rect class="cls-5" x="465.2" y="24.57" width="81.8" height="56.5"/><rect class="cls-6" x="34.5" y="134.27" width="80.3" height="55.1"/><rect class="cls-7" x="141.7" y="134.27" width="80.3" height="54.9"/><rect class="cls-8" x="248.7" y="134.27" width="82.3" height="54.9"/><rect class="cls-9" x="356.9" y="134.27" width="81.5" height="54.9"/><rect class="cls-10" x="465.2" y="134.27" width="81.8" height="55.1"/><rect class="cls-11" x="34.5" y="241.97" width="80.3" height="55.3"/><rect class="cls-12" x="141.7" y="241.97" width="80.3" height="55.3"/><rect class="cls-13" x="248.7" y="241.97" width="82.1" height="55.3"/><rect class="cls-14" x="356.9" y="241.97" width="81.8" height="55.4"/><rect class="cls-15" x="465.2" y="241.97" width="81.8" height="55.4"/><rect class="cls-16" x="34.5" y="350.97" width="80.3" height="54.6"/><rect class="cls-17" x="141.7" y="350.97" width="80.3" height="54.6"/><rect class="cls-18" x="248.9" y="350.97" width="82.3" height="54.6"/><rect class="cls-19" x="356.9" y="350.97" width="81.5" height="54.3"/><rect class="cls-20" x="465.2" y="350.97" width="81.8" height="54.1"/><rect class="cls-21" x="34.5" y="459.07" width="80.3" height="54.2"/><rect class="cls-22" x="141.7" y="458.87" width="80.3" height="54.7"/><rect class="cls-23" x="248.7" y="458.27" width="82.3" height="55"/><rect class="cls-24" x="356.9" y="458.27" width="81.5" height="55"/><rect class="cls-25" x="465.2" y="458.17" width="81.8" height="55.3"/><rect class="cls-26" x="34.5" y="566.27" width="80.3" height="55.3"/><rect class="cls-27" x="141.7" y="566.27" width="80.3" height="55.3"/><rect class="cls-28" x="248.7" y="566.27" width="82.2" height="55.3"/><rect class="cls-29" x="356.9" y="566.27" width="81.8" height="55.3"/><rect class="cls-30" x="465.2" y="566.47" width="81.8" height="54.9"/><rect class="cls-31" x="34.5" y="672.87" width="80.3" height="56.5"/><rect class="cls-32" x="141.7" y="672.87" width="80.3" height="56.5"/><rect class="cls-33" x="248.7" y="672.87" width="82.2" height="56.5"/><rect class="cls-34" x="357.2" y="672.87" width="81.8" height="56.5"/><rect class="cls-35" x="465.2" y="672.87" width="81.8" height="56.5"/><text class="cls-36" transform="translate(34.5 100.07)">AP6-1</text><text class="cls-36" transform="translate(34.5 114.47)">Mauve Bisque</text><text class="cls-36" transform="translate(141.7 100.07)">AP7-6</text><text class="cls-36" transform="translate(141.7 114.47)">Iced Ginger</text><text class="cls-36" transform="translate(248.85 100.07)">AP3-4</text><text class="cls-36" transform="translate(248.85 114.47)">Hearth Candle</text><text class="cls-36" transform="translate(357.2 100.07)">AP58-6</text><text class="cls-36" transform="translate(357.2 114.47)"><tspan class="cls-37">Y</tspan><tspan x="6.9" y="0">ellow Fragrance</tspan></text><text class="cls-36" transform="translate(465.2 100.07)">AP59-3</text><text class="cls-36" transform="translate(465.2 114.47)">Chromatella</text><text class="cls-36" transform="translate(34.5 209.07)">AP10-2</text><text class="cls-36" transform="translate(34.5 223.47)">Hint Of Blue</text><text class="cls-36" transform="translate(141.7 209.07)">AP76-4</text><text class="cls-36" transform="translate(141.7 223.47)">Wínome Blue</text><text class="cls-36" transform="translate(248.7 209.07)">AP76-4</text><text class="cls-36" transform="translate(248.7 223.47)">Fresh Blue</text><text class="cls-36" transform="translate(356.9 209.07)">AP82-4</text><text class="cls-36" transform="translate(356.9 223.47)"><tspan class="cls-38">T</tspan><tspan x="6.88" y="0">rue Blue</tspan></text><text class="cls-36" transform="translate(465.2 209.07)">AP84-4</text><text class="cls-36" transform="translate(465.2 223.47)">Blue<tspan class="cls-39" x="24.02" y="0"> </tspan><tspan class="cls-40" x="26.69" y="0">A</tspan><tspan x="34.48" y="0">ward</tspan></text><text class="cls-36" transform="translate(34.5 314.07)">AP86-1</text><text class="cls-36" transform="translate(34.5 328.47)">Blue Phlox</text><text class="cls-36" transform="translate(141.7 314.07)">AP87-2</text><text class="cls-36" transform="translate(141.7 328.47)">Faded <tspan class="cls-40" x="37.36" y="0">V</tspan><tspan x="45.15" y="0">iolet</tspan></text><text class="cls-36" transform="translate(248.7 314.07)">AP88-2</text><text class="cls-36" transform="translate(248.7 328.47)">Heather Bunch </text><text class="cls-36" transform="translate(357.2 314.07)">AP90-3</text><text class="cls-36" transform="translate(357.2 328.47)">Cerise Pink </text><text class="cls-36" transform="translate(465.2 314.07)">AP97-2</text><text class="cls-36" transform="translate(465.2 328.47)">Daydawn</text><text class="cls-36" transform="translate(34.5 423.07)">AP99-2</text><text class="cls-36" transform="translate(34.5 437.47)">Petite Peach</text><text class="cls-36" transform="translate(141.7 423.07)">AP105-5</text><text class="cls-36" transform="translate(141.7 437.47)">Sunnyside Lance</text><text class="cls-36" transform="translate(248.85 423.07)">AP107-3</text><text class="cls-36" transform="translate(248.85 437.47)">Bleached <tspan class="cls-40" x="53.37" y="0">W</tspan><tspan x="64.48" y="0">ool</tspan></text><text class="cls-36" transform="translate(357.2 423.07)">AP108-2</text><text class="cls-36" transform="translate(357.2 437.47)">Nutmeal</text><text class="cls-36" transform="translate(465.2 423.07)">AP<tspan class="cls-41" x="16.01" y="0">1</tspan><tspan x="21.79" y="0">13-4</tspan></text><text class="cls-36" transform="translate(465.2 437.47)">Painte<tspan class="cls-42" x="34.03" y="0">r</tspan><tspan class="cls-40" x="38.47" y="0">’</tspan><tspan x="40.92" y="0">s Leaf</tspan></text><text class="cls-36" transform="translate(34.5 531.07)">AP<tspan class="cls-41" x="16.01" y="0">1</tspan><tspan x="21.79" y="0">15-2</tspan></text><text class="cls-36" transform="translate(34.5 545.47)">Glazed Green</text><text class="cls-36" transform="translate(141.7 531.07)">AP<tspan class="cls-41" x="16.01" y="0">1</tspan><tspan x="21.79" y="0">19-2</tspan></text><text class="cls-36" transform="translate(141.7 545.47)">Near Night</text><text class="cls-36" transform="translate(248.7 531.07)">AP121-3</text><text class="cls-36" transform="translate(248.7 545.47)">Perry Blue</text><text class="cls-36" transform="translate(357.2 531.07)">AP124-2</text><text class="cls-36" transform="translate(357.2 545.47)"><tspan class="cls-43">T</tspan><tspan x="6" y="0">o Dream</tspan></text><text class="cls-36" transform="translate(465.2 531.07)">AP125-3</text><text class="cls-36" transform="translate(465.2 545.47)">Blue Crock</text><text class="cls-36" transform="translate(34.5 638.07)">AP130-1</text><text class="cls-36" transform="translate(34.5 652.47)">Cloud Wisp</text><text class="cls-36" transform="translate(141.7 638.07)">AP133-2</text><text class="cls-36" transform="translate(141.7 652.47)">Lilac Sachet</text><text class="cls-36" transform="translate(248.9 638.07)">AP136-1</text><text class="cls-36" transform="translate(248.9 652.47)">Bells Of Holland</text><text class="cls-36" transform="translate(357.2 638.07)">AP137-2</text><text class="cls-36" transform="translate(357.2 652.47)">Chata Phlox</text><text class="cls-36" transform="translate(465.2 638.07)">AP157-6</text><text class="cls-36" transform="translate(465.2 652.47)">Sultan Blue</text><text class="cls-36" transform="translate(34.5 749.07)">AP139-1</text><text class="cls-36" transform="translate(34.5 763.47)">Early Pink</text><text class="cls-36" transform="translate(141.7 749.07)">AP143-1</text><text class="cls-36" transform="translate(141.7 763.47)">Infant Smile</text><text class="cls-36" transform="translate(248.9 749.07)">AP143-4</text><text class="cls-36" transform="translate(248.9 763.47)"><tspan class="cls-43">T</tspan><tspan x="6" y="0">erracotta</tspan></text><text class="cls-36" transform="translate(356.9 749.07)">AP151-1</text><text class="cls-36" transform="translate(356.9 763.47)">Silent Bliss</text><text class="cls-36" transform="translate(465.2 749.07)">AP164-3</text><text class="cls-36" transform="translate(465.2 763.47)">Lush Green</text></svg>