<svg id="Layer_1" data-name="Layer 1" xmlns="http://www.w3.org/2000/svg" viewBox="0 0 560.78 791.06"><defs><style>.cls-1{fill:#f9efe1;}.cls-2{fill:#f6ead5;}.cls-3{fill:#fbf5de;}.cls-4{fill:#efe2d2;}.cls-5{fill:#fcf2d3;}.cls-6{fill:#f8efe5;}.cls-7{fill:#f4e9e3;}.cls-8{fill:#fbeee3;}.cls-9{fill:#f8e7e0;}.cls-10{fill:#fde4d8;}.cls-11{fill:#f6f6f6;}.cls-12{fill:#d9f1e9;}.cls-13{fill:#edf6eb;}.cls-14{fill:#e8f1da;}.cls-15{fill:#e1f0f0;}.cls-16{fill:#cfe8db;}.cls-17{fill:#e7efcc;}.cls-18{fill:#edeedc;}.cls-19{fill:#e6e5cd;}.cls-20{fill:#e9e2cb;}.cls-21{fill:#f4e8d1;}.cls-22{fill:#f9edda;}.cls-23{fill:#fdf0d4;}.cls-24{fill:#fbe2d2;}.cls-25{fill:#f3dcd0;}.cls-26{fill:#e5e8e2;}.cls-27{fill:#e0e3df;}.cls-28{fill:#eae8e1;}.cls-29{fill:#f6f0e3;}.cls-30{fill:#e4e0d7;}.cls-31{fill:#e6f2c6;}.cls-32{fill:#e7ecca;}.cls-33{fill:#f6edc6;}.cls-34{fill:#f4edcd;}.cls-35{fill:#bedbe0;}.cls-36{isolation:isolate;font-size:12px;font-family:ArialMT, Arial;}.cls-37{letter-spacing:-0.02em;}.cls-38{letter-spacing:-0.04em;}.cls-39{letter-spacing:-0.06em;}.cls-40{letter-spacing:-0.11em;}.cls-41{letter-spacing:-0.07em;}</style></defs><rect class="cls-1" x="236.53" y="25.67" width="80.1" height="54.9"/><rect class="cls-2" x="347.83" y="25.67" width="77.5" height="54.9"/><rect class="cls-3" x="21.73" y="24.87" width="79.1" height="56.4"/><rect class="cls-4" x="453.03" y="25.67" width="80.3" height="54.9"/><rect class="cls-5" x="127.93" y="24.87" width="81.8" height="56.4"/><rect class="cls-6" x="21.73" y="137.27" width="79.6" height="51.8"/><rect class="cls-7" x="127.73" y="137.27" width="81.8" height="51.7"/><rect class="cls-8" x="237.73" y="137.27" width="79.6" height="51.7"/><rect class="cls-9" x="347.53" y="137.27" width="77.5" height="51.7"/><rect class="cls-10" x="453.03" y="137.27" width="80.3" height="51.7"/><rect class="cls-11" x="20.23" y="242.97" width="80.6" height="53.8"/><rect class="cls-12" x="237.73" y="243.57" width="78.9" height="52.7"/><rect class="cls-13" x="347.93" y="243.17" width="76.7" height="53.4"/><rect class="cls-14" x="453.03" y="243.07" width="80.3" height="53.6"/><rect class="cls-15" x="126.03" y="243.57" width="83.5" height="53.8"/><rect class="cls-16" x="20.23" y="348.17" width="80.6" height="55.6"/><rect class="cls-17" x="128.43" y="348.87" width="80.4" height="55.2"/><rect class="cls-18" x="237.73" y="348.87" width="79.5" height="55.3"/><rect class="cls-19" x="347.93" y="348.17" width="76.7" height="56"/><rect class="cls-20" x="453.03" y="348.17" width="80.3" height="56"/><rect class="cls-21" x="20.23" y="457.07" width="80.6" height="55.6"/><rect class="cls-22" x="128.43" y="457.07" width="80.7" height="55.6"/><rect class="cls-23" x="238.13" y="457.07" width="78.8" height="55.6"/><rect class="cls-24" x="345.63" y="457.07" width="79" height="55.6"/><rect class="cls-25" x="453.03" y="457.07" width="80.3" height="55"/><rect class="cls-26" x="22.73" y="565.67" width="78.2" height="54.9"/><rect class="cls-27" x="128.03" y="565.67" width="81.5" height="54.1"/><rect class="cls-28" x="237.73" y="565.67" width="79.5" height="54.5"/><rect class="cls-29" x="347.53" y="565.67" width="77.5" height="54.7"/><rect class="cls-30" x="453.03" y="565.67" width="80.3" height="54.6"/><rect class="cls-31" x="22.73" y="672.97" width="78.1" height="55.6"/><rect class="cls-32" x="127.73" y="672.77" width="81.8" height="55.2"/><rect class="cls-33" x="238.53" y="672.77" width="78.7" height="56"/><rect class="cls-34" x="348.33" y="672.77" width="76.4" height="56"/><rect class="cls-35" x="453.53" y="672.47" width="80.3" height="56.3"/><text class="cls-36" transform="translate(28.13 101.87)">AP2-5</text><text class="cls-36" transform="translate(28.13 116.27)">Creamy White</text><text class="cls-36" transform="translate(140.51 101.87)">AP3-4</text><text class="cls-36" transform="translate(140.51 116.27)">Hearth Candle</text><text class="cls-36" transform="translate(247.51 101.87)">AP5-4</text><text class="cls-36" transform="translate(247.51 116.27)">Bare Blush</text><text class="cls-36" transform="translate(357.51 101.87)">AP4-2</text><text class="cls-36" transform="translate(357.51 116.27)">Bare Essence</text><text class="cls-36" transform="translate(464.51 101.87)">AP6-1</text><text class="cls-36" transform="translate(464.51 116.27)">Mauve Bisque</text><text class="cls-36" transform="translate(28.13 207.89)">AP7-4 </text><text class="cls-36" transform="translate(28.13 222.29)">White Peony</text><text class="cls-36" transform="translate(140.51 207.89)">AP8-3</text><text class="cls-36" transform="translate(140.51 222.29)">Penelope Pink</text><text class="cls-36" transform="translate(247.51 207.89)">AP8-1</text><text class="cls-36" transform="translate(247.51 222.29)">Snowbush Rose</text><text class="cls-36" transform="translate(357.51 207.89)">AP8-2</text><text class="cls-36" transform="translate(357.51 222.29)">Felicia Rose</text><text class="cls-36" transform="translate(464.51 207.89)">AP7-6</text><text class="cls-36" transform="translate(464.51 222.29)">Iced Ginger</text><text class="cls-36" transform="translate(28.13 317.89)">AP9-1</text><text class="cls-36" transform="translate(28.13 332.29)"><tspan class="cls-37">V</tspan><tspan x="7.79" y="0">iolet Whispẻ</tspan></text><text class="cls-36" transform="translate(140.51 317.89)">AP10-1</text><text class="cls-36" transform="translate(140.51 332.29)">Blue<tspan class="cls-37" x="24.02" y="0"> </tspan><tspan class="cls-38" x="27.13" y="0">T</tspan><tspan x="34.02" y="0">race</tspan></text><text class="cls-36" transform="translate(247.51 317.89)">AP10-4</text><text class="cls-36" transform="translate(247.51 332.29)">Summer Day</text><text class="cls-36" transform="translate(357.51 317.89)">AP12-3</text><text class="cls-36" transform="translate(357.51 332.29)">Cool Hint</text><text class="cls-36" transform="translate(464.51 317.89)">AP13-4</text><text class="cls-36" transform="translate(464.51 332.29)">Clover Petal</text><text class="cls-36" transform="translate(28.13 422.89)">AP20-5</text><text class="cls-36" transform="translate(28.13 437.29)">Alpine Echo</text><text class="cls-36" transform="translate(140.51 422.89)">AP22-5</text><text class="cls-36" transform="translate(140.51 437.29)">Whispering Willow</text><text class="cls-36" transform="translate(247.51 422.89)">AP23-1</text><text class="cls-36" transform="translate(247.51 437.29)"><tspan class="cls-37">V</tspan><tspan x="7.79" y="0">ictorian Parlor</tspan></text><text class="cls-36" transform="translate(357.51 422.89)">AP24-1</text><text class="cls-36" transform="translate(357.51 437.29)"><tspan class="cls-39">V</tspan><tspan x="7.34" y="0">ersatile Neutral</tspan></text><text class="cls-36" transform="translate(464.51 422.89)">AP26-1</text><text class="cls-36" transform="translate(464.51 437.29)">Almond Chip</text><text class="cls-36" transform="translate(28.13 532.89)">AP28-1</text><text class="cls-36" transform="translate(28.13 547.29)">Basic Ivory</text><text class="cls-36" transform="translate(140.51 532.89)">AP31-1</text><text class="cls-36" transform="translate(140.51 547.29)">Artist Canvas</text><text class="cls-36" transform="translate(247.51 532.89)">AP29-1</text><text class="cls-36" transform="translate(247.51 547.29)">Cream<tspan class="cls-37" x="36.01" y="0"> </tspan><tspan class="cls-38" x="39.12" y="0">T</tspan><tspan x="46.01" y="0">int</tspan></text><text class="cls-36" transform="translate(357.51 538.89)">AP37-1</text><text class="cls-36" transform="translate(357.51 553.29)"><tspan class="cls-40">T</tspan><tspan x="6" y="0">oe Shoes</tspan></text><text class="cls-36" transform="translate(464.51 538.89)">AP40-1</text><text class="cls-36" transform="translate(464.51 553.29)">Pink Cream</text><text class="cls-36" transform="translate(28.13 640.89)">AP49-1</text><text class="cls-36" transform="translate(28.13 655.29)">Jane<tspan class="cls-37" x="26.02" y="0">’</tspan><tspan x="28.47" y="0">s Gray</tspan></text><text class="cls-36" transform="translate(140.51 640.89)">AP52-1</text><text class="cls-36" transform="translate(140.51 655.29)">Sea Salt</text><text class="cls-36" transform="translate(247.51 640.89)">AP54-1</text><text class="cls-36" transform="translate(247.51 655.29)">Gray Foam</text><text class="cls-36" transform="translate(357.51 640.89)">AP57-1</text><text class="cls-36" transform="translate(357.51 655.29)">Ivory<tspan class="cls-37" x="26" y="0"> </tspan><tspan class="cls-40" x="29.12" y="0">T</tspan><tspan x="35.12" y="0">oo</tspan></text><text class="cls-36" transform="translate(464.51 640.89)">AP55-1</text><text class="cls-36" transform="translate(464.51 655.29)"><tspan class="cls-38">W</tspan><tspan x="10.88" y="0">arm Silver</tspan></text><text class="cls-36" transform="translate(28.13 747.89)">Ap64-1</text><text class="cls-36" transform="translate(28.13 762.29)">Greenlet</text><text class="cls-36" transform="translate(140.51 747.89)">AP<tspan class="cls-41" x="16.01" y="0">1</tspan><tspan x="21.79" y="0">12-1</tspan></text><text class="cls-36" transform="translate(140.51 762.29)">Willow Wind</text><text class="cls-36" transform="translate(247.51 747.89)">AP108-1</text><text class="cls-36" transform="translate(247.51 762.29)"><tspan class="cls-40">T</tspan><tspan x="6" y="0">apioca</tspan></text><text class="cls-36" transform="translate(357.51 747.89)">AP106-1</text><text class="cls-36" transform="translate(357.51 762.29)">Ivory Porcelain</text><text class="cls-36" transform="translate(464.51 747.89)">AP81-1</text><text class="cls-36" transform="translate(464.51 762.29)">Feeling Blue</text></svg>